<mxfile host="65bd71144e">
    <diagram id="YWcLxMvUNxB0OmJdpkfB" name="Page-1">
        <mxGraphModel dx="1806" dy="1097" grid="1" gridSize="10" guides="1" tooltips="1" connect="1" arrows="1" fold="1" page="1" pageScale="1" pageWidth="850" pageHeight="1100" math="0" shadow="0">
            <root>
                <mxCell id="0"/>
                <mxCell id="1" parent="0"/>
                <mxCell id="2" value="" style="shape=image;verticalLabelPosition=bottom;labelBackgroundColor=default;verticalAlign=top;aspect=fixed;imageAspect=0;image=data:image/png,iVBORw0KGgoAAAANSUhEUgAABfAAAAgRCAMAAACWKzOiAAAAIGNIUk0AAHomAACAhAAA+gAAAIDoAAB1MAAA6mAAADqYAAAXcJy6UTwAAAIxUExURf///+3t7s3Oz7O0t4SHi2FkaSgsM3N1epSWmtnZ2/X19vv7+05SV+Tk5Tw/RsDBw6OlqNzc3TMzM+Xl5fb29s/Pz7e3t2BgYKysrKioqGRkZO7u7jY2NsPDw0FBQZiYmF9fX9vb20BAQJWVlYeHh09PT6ampoODg5qamnp6epeXl35+fmJiYjQ0NFFRUerq68fHyPT59ACKDk6tV4vJken06jCgOzShP5XOmoDEh9/v4Wi5b9bs2CYwMTp/RCCYLHC9eKO0qGhrboiIiJCQkKGhodbW1nN+emVmZ3FxcVxcXPf399rg29/w4Kqqqk5OTnx8fLS0tHV1dd7e3oyMjM7OzvD48GlpacXFxe3t7YKCgpmZmVlZWWM0OkAoLpeQlOgTE/zh4f77++orK/3q6vFzc+w/P/nExPSTk+szM/Pu7js+RUNDROHh4ampq7Ozs729vVVVVTw8PD8/P2VlZcjIyHl5eUZGRoWFhYCAgKmpqboeIIYfI56FifPt7nW/fKWlpZbOnGhoaFRUVG1tbY2NjfnHx/vZ2es7O+s1NfWcnPF7e+xCQvBrazRIPi+VO1myYubx54mJiT4+PkxMTHd3d/vd3f3397S0tURERDs7O0VFRYaGhp2dnUNDQ2dnZ5OTkzk5OTo6OjU1NVhYWDc3N0hISM3NzUpKSkdHR3Nzc1ZWVlNTU2NjY3t7e4qKirGxsbq6ukJCQsvLy9ra2tXV1T09PfLy8l5eXpGRkXZ2dsAsyNcAAAABYktHRACIBR1IAAAACXBIWXMAABibAAAYmwFJdYOUAAAAB3RJTUUH6QIVBCQxR6ddZwAAbD9JREFUeNrt/Ymb9Fpi2Od1FaqA2lBV6TtDmSI5Q45EUjLlRZfSUAu1WVQUacShbWZkk/HyDaWrq7EWjpbEdiTFdhYzDLOLzmJlteTYjuM9sZP8dQZQW69VONWoAg7wvs/DYd+vN/T3NX6FOjjn1MMDAAAAAAAAAAAAAAAAAAAAAAAAAAAAAAAAAAAAAAAAAAAAAAAAAAAAAAAAAAAAAAAAAAAAAAAAAAAAAAAAAAAAAAAAAAAAAAAAAAAAAAAAAAAAAAAAAAAAAAAAAAAAAAAAAAAAAAAAAAAAAAAAAAAAAAAAAAAAAAAAAAAAAAAAAAAAAAAAAAAAAAAAAAAAAAAAAAAAAAAAAAAAAAAAAAAAAAAAAAAAAAAAAAAAAAAAAAAAAAAAAAAAAAAAAAAAAAAAAAAAAAAAAAAAAAAAAAAAAAAAAAB01GicTKbprWSzZL5o+0cEYDmerW7W+pPVbL5s+0cFGLLx5HQVnt/G8dnDejZv+8cFGKhlsq5in4xu/q3ypIr+atz2zwwwQLvcT8f3GmlZbMqho3ViZAfgvjZl7mf3vZmalwNIKwM7AHeUT4uL7e39584sZuUYkjk7APeStJfd6qHGRT7AXSyzVgdWysGkmZF8gNsbFcGdtBncUXGRP1V8gFsre79p+Ri2RfFvPxcUYNjGabpuv7XdOAqAPutKabtyHAB9NVqnq250tjiStXF8gFspK9uN3j88zN25BbiZ5bQ7va9GdSZtHwNAT83StEtLnpL2pwsB9FNxSb1t+xieydK0O084APpjsU6nbR/Dc8t1umr7GAB6aJKuu7ZrWZ6mSdvHANA7nYxrBx+EAKK36uLwyWKdzto+BoCeGadp3vYxvCFJU5f4AI1apVnbh/CWpUt8gGbNu3mB7xIfoGmTbl7gV5f427aPAaBHFmk6bvsY3jHr4s1kgGht0rSrG5WNujrYBBClaYdvja46fGwAsVkE75q2yPNa29ws8/yjTx0SYzoAjRmnaciHL8dZWsrK+TPpU+V7y43s9x+YHP58Ol5Wa3lP6t8jzs3TAWjMLGyOzixNV5OkjP7mjeCXf76/+k/SdVYq/mSdXxv8h7VdkgGasgraRucwU3I5PV57J6eAL9J0chh1P/zxcnwaiA/fsmfihVAAmhI2EWZzeLXZRTbZf96T4G/TyfzwAac/To6vUBse/KRr2zYDRGsUNko+fj1p/0nw18U7V/sPOP3x4viYEh78edgdBgDeFVrU1atnBKeyj8tL+e3+mvz0x8Wzgv1b4cEPfDwC4F2hYybl3dfVbLN4+hUOZc/KwfrF/rbt8Y8/NIYfOOIEwLuS0I10xpPTZMvnX2Gf+mzX98MsnXU1S2dH8AHasw3fOW05306L5B8u24/Bn+2eLIx392iP8/DXyXH51RXBn3bwtbgAopRduSHl9LgDz3H+5TpdlZf009193SSd5oXt0xcqvCL4meADNOPaoI6O8T4Ef3xaWTU9/fHy6aurCD5Ae8KCukyywzY600PID8E/bsKWV2P5hz/O09NiWcEHaE/YkE5xvT7djeTMjxPy92V/spVxNS3nOLQ/OQ3qCD5AewJv2hbX69MkX+bJ+rh8dl/2Jy9WUk28PwZ/uT5+CzdtAdoTOi1zcxynnz/7CkXWj2WuXkPr6cKrwwbMpmUCtCd4s5rleJJlx410CnlSju0skuQ0G2eczPd/XNkk+1H8JAmut+ADNKTjm9XYWgGgKR0vascfjwBi0u0xE9sjAzQm7AVQ7s0LoAA0JvAlDu/MSxwCNCbwRczvy4uYAzRncZwl30HJaTUXAB913AOng1YdPjaA6GyOGx13zqjbU4gAIrN4/brkXTEzogPQpElX5+ks11e+OgsAb5p3deAkMUcHoFmrbl7iFxf4btkCNGrczUt8F/gAjVt18ebowgU+QOPyK16Z5OaevDQiAE3pYFw7+SAEEL3FumvbEC/XXRxmAojfOO3YlPcsTUdtHwNAL826tYdaktoXGeA2ltN03Z1L6uIJhxc+AbiR0bo7xZ+n6bSrG7oBxK8o/qobxS8fe/Qe4HbGaTeu8btyHAD91Y3SduMoAPpttG5/csw2Tad6D3BrZfEnbQ6fj6bu1wLcxTJL01V7E/I3xQPOTO8B7iJJ0zRrZ2OdvLi8X3dp+RdAv1XZ3d4/+YtZew81AANVDqyks/umN5+krQ4mAQzTMimTPx3fazR9sVkV32+dGL0HuLtd8tMsuf0MyTyZlt9qNW77ZwYYqnE5yFJGf5bM8zxveoRnVHzNcTKpYp+uZwZzAFq0HM9W6e2tZnNjOQCtGx2vwm+hfPZgXg5At5RDMDX8Nx4f632gzgPE7bPHto8AgLsQfICBEHyAgRB8gIEQfICBEHyAgRB8gIEQfICBEHyAgRB8gIEQfICBEHyAgRB8gIEQfICBEHyAgRB8gIEQfICB+OzxK20fAgD38JXHz9o+BADuQvAB+u+rP1D4Lf9Q+b9tHwoAt/SDjwe/te1DAeCWfujQ+x/+kbYPBYCb+tqh+GbqAPTb1/e9/9G2DwSA2/oxIzoAA/ENIzoAw/DbjOgADEM1pvPDP9j2YQBwc9WYzg+1fRQA3NxvL3r/420fBAC399Ui+D/R9kEAcHtLIzoAA/GTRnQAhuGrRnQAhmH5+GNtHwIAd/E72j4AAM4brdNOmbf9FwLQU8tp24V/YT1q+68EoJ9mabrJu2O+TqfLtv9OAPpok6bbto/hmXGazto+BoAeytM0a/sYXtgWTznaPgaA3lmu01XnBlCyNDWMD9CwaRfbWjwKrTv3KAQQt1majts+hjeM0nTa9jEA9Epn74+Ou3YnGSBuo+7OgOzoUw+AOC1X6XrR9kG8d2xT668AGjNJ07ztY3jXorvPPgBik6Rp0vYxnDFP00nbxwDQC50PascfkABiEcGQSaeHnABiEcNN0S7fVAaIRhTTHjs8bRQgFpEsbOrswjCAWESzdUEUT0QAuiuizck6ubkbQDQi2n64k9s3A8QiqhcY6eALtADEIrI7oZ17CUaAWEQ313GWpvO2jwEgQjGsuIr9iAE6YRLf9XJ0z0kAumAT445k87juOgB0QaRzXqKaVwTQBYtYZ7VnNs4ECBLt7c9y48woH6kA2hHxzjTR7P4D0AWRrbjq0cED3Fc5u7HtY/iAiJ+eANxX7K8fZf0VQE3RT3SJdooRwH0l8U9lz9N00vYxAHTevA+xTGJcJgxwXz3ZjibCjYAA7qsvNzzLnyPmG88AN9ebKY09eaYCcCs9etEo668AzhjFuUXm27Z9ebIC0Lzlulcbj03TtA+3IwBuoGeF7NnjF0BzejcG0qsRKoDm9PAuZ4/uQQM0p5fzGHszyxSgOf1cqdSXdWQADerpXgS9fN4C8BE3220sa3kXs17sBQfQnNvtJ/w6+Iv8dMmdnO6qZjfahL8Huz0DNOeGrxgyyl/eGUielL2o8eG/bhX8+F/PBaA59721mb0I/vT1Hzf700X+io0ADbrl5MVxklf/s5xvJ+Vd4TxZp7PkEOAkna33Yz43C37sr8kO0JybrriqxvCzdDstruXT1ai6pj+NsSRpstlff98u+H1cUgZwjVF6ywvgffCL5JbX9tuHRZ6mm+Nt2yL4D9Pd/gc3DL71VwClcoj7hjPVD8Eva56kq+J/02dj+En5gDN/uG3wH6y/Arj5JJZ98Nfl2/M0fXgd/Idt9Yhz0+DfcBoSQCy2N56mvg9+NYaevx384jnG9sbBL7+1jTOBYZvf+n7mPvjVTJx3gl8eRH7j4JcbZ7a75BegXbffaqZO8B8m6fTWwe/rZkEANXUk+It1mgg+wE21MqRzCu8++A+bdL0ypANwU3e6afsk+NM0y08rbfcVnqa3nSzkpi3AnaZlPgl+8b/Hi+1j8Ee3Db5pmQA3X3h12EunfHuRVHnfJMmh7fnxrXmS3HCHMwuvAB5uvbVCJ9haAaDS+73Fev8DAtTV8wtg2yMDHNz3BVDu/tN5ARSAo15PYvEShwBP3O5FzFvnRcwBnkn6uhB13t+HMoDr9HSrmdtvFgQQm/LGbf9ubfb7djTAdXp5LdzzCacA1+nh8qRNWr6WFgAvbPt2OTyyRSbA26Zp2qcB7+X6ptvCAUSsZ4Xs2eMXQJN6NQbSuxEqgCb16C5nD+9BAzSpN/MYeznLFKBBfVmp1M91ZABN6smVcU93igBoUi92G+vtXnAATerBfsI93u0ZoEnRv2JIr1/PBaBBsb8mYF9uPAPcXuSv+t2bqaUAtxf1oqWoDx7g3iK+SB6lUT89Abi3aIfByxsQbtgC1BftRJfopxgB3Fse58aZ2/gXEQDc2ybGxapzN2wBwkW4HU1PNgICuLP41i/Fd8QA3RDd9fIsvuckAN0Q2RKmHr1cF8C9RTXnJdJ5RQDdkKVpLIPiy1hXDgB0QlHRWNatTuN5bALoomh2pol49x+AbhjHcSc0svvLAF0UxaVzdDNIAToohtVMsb9GF0A3LLp/9TyxRSZAE+ZpOmn7GM5KYtznDaCLOh7Uzj8gAcSj00MmEQw5AUSjyzdFY7ipDBCPDk97jGLaKEA8OruwKZKFYQDx6OiFdDRbPwDEo5Obk0W0uRtANDq5/XBE2zcDxKODLzAS1Qu0AMSjcy8h2Nk7yQCx69iLhHd4rihA5JbTtFusuAK4keKaulO69HwDoF8WeSMeHxv5Mq7vAbru8bO2jwCAuxB8gIEQfICBEHyAgRB8gIEQfICBEHyAgRB8gIEQfICBEHyAgRB8gIEQfICBEHyAgRB8gIEQfICBEHyAgRB8gIEQfICBEHyAgRB8gIEQfICBEHyAgRB8gIEQfICBEHyAgRB8gIEQfICBEHyAgRB8gIEQfICBEHyAgRB8gIEQfICBEHyAgRB8gIEQfICBEHyAYVgKPsAwfPb4Q20fAgD38Nlj20cAwF0IPsBACD7AQAg+wEAIPsBACD7AQAg+wEAIPsBACD7AQAg+wEAIPsBACD7AQAg+wEAIPsBACD7AQAg+wEAIPsBACD7AQAg+wEAIPsBACD7AAPxA4R/6LeX//kjbhwLALf3Wx4Pf1vahAHBLP/LDh+D/WNuHAsAtfeV4hb9s+1AAuKkf3ff+t7d9IADc1mFM56ttHwgAt/UVIzoAA/GjRnQAhuEHf9iIDsAg/JARHYCB+PGi9z/Z9kEAcHs/YUQHYBh+yIgOwED8uBEdgGH4CSM6AMPwY0Z0AAbid7R9AAC8Y5P20Lztv1WADsrajvMtGFcCeC1Nk7xfsnTa9l8qQAflabpo+xgatkq3bR8CQAdt01Xbh9CwRZrmbR8DQAdN01nbh9CwcZq2fQgAHbTs34yWSZq1fQgAHTTv34yWdbpp+xAAOmjWuxktozQdtX0MAB3Uvxktm3Td9iEAdFAPZ7Rk6aTtQwDooB7OaEnTcduHANBB/ZvR0sOFZABN6N+Mlv4tJANoQg9ntPRvIRlAE/o3o6WHC8kAmtC/GS09XEgG0IT+zWjp30IygCb0cEZL/xaSATShfzNaeriQDKAJ/ZvR0sOFZAAN6OGMlv4tJANoQg9ntPRvIRlAE/o3o6WHC8kAmtC/GS39W0gG0IQezmjp30IygCb0cEZL/xaSATShfzNaeriQDKAJ/ZvR0r+FZABN6OGMlv4tJANoQv9mtPRwIRlAE/o3o6WHC8kAmtC/GS39W0gG0IQezmjp30IygCb0b0ZLDxeSATShfzNaeriQDKABPZzR0r+FZABN6OGMlv4tJANoQv9mtPRwIRlAE/o3o6V/C8kAmtDDGS39W0gG0IQezmjp30IygCb0b0ZLDxeSATShfzNa+reQDKAJPZzR0r+FZABN6N+Mlh4uJANoQv9mtPRwIRlAE/o3o6V/C8kAmtDDGS39W0gG0ISWZ7SMnqz5WuaNPPT0cCEZQBMamdGSpGmyf/NibRfZcaHXcpIWJrsB9/GqeHvVwPBSDxeSATSgmRktRfDX+6vzS8Gfr9NDkJfTovZF5qdl8YtMT8v+f7z4/VtIBtCEZma0FME/VPZC8LdF4w/Bn6Xr5cOy+JNZNQ6zeXjI1w0cTv8WkgE0oZkZLUlZ8d0zhQvBz1aj/BD89e5TqoUAm91xLFcfvsTv4UIygCY0M6MlSZNtuqquzZ8EPzk5fuR8+XAIfn64mi8/JdvfBNh+eFVA/xaSATShoRktRfCX+4eOJ18wPXn6wafg759cTItPme6fIIw/PADfv4VkAE1oaEZLEfzybkA5lPIk+PnJ0w8+BH9zaHt5dX/4tPzDs0T7t5AMoAkNzWgpg198rfKK/fJThkPwk7eD/8FHoB4uJANoQkMzWqrgL6ov9uHgf3AE3tbIAG9pakZLFfzydukiIPjzU/DnxSPP7tM+PIZva2SAtzQ1o2UX/CK2k6Cbtunh48pZOpv9V/pY8G2NDPCmpma07INfPGGYPwl+dvL0gw+hX+6fXlTTM2f7C/Psg9NEbY0M8KamZrQkx1n0q/pDOuVd3qL4o/J5QRnqTfWFPjjGZGtkgLc0NqPlEPxluQHaueAv8zzfFB+S56Mq8umm+K9qEGaaptm8+J8P9trWyABvaWxGyyH4VcPPBT8/juqXozzj3ZvVs4xyJ7V0v5Ha9WyNDPCmxma05Mkhs5skOfekYXHcbGG8+7wsO3zqcjPLZuMPDsDbGhngLT2c0WJrZIC39HBGi62RAd7SvxkttkYGeFP/ZrTYGhngLT2c0WJrZIC39HBGi62RAd7SvxkttkYGeFP/ZrTYGhngLT2c0WJrZIC39G9GSw8XkgE0oX8zWnq4kAygCf2b0dK/hWQATejhjJb+LSQDaEL/ZrT0cCEZQBP6N6OlhwvJABrQwxkt/VtIBtCEHs5o6d9CMoAm9G9GSw8XkgE0oX8zWvq3kAygCT2c0dK/hWQATejhjJb+LSQDaEL/ZrT0cCEZQBP6N6OlfwvJAJrQwxkt/VtIBtCE/s1o6eFCMoAm9G9GSw8XkgE0oX8zWvq3kAygCT2c0dK/hWQATejfjJYeLiQDaEL/ZrT0cCEZQAN6OKOlfwvJAJrQwxkt/VtIBtCE/s1o6eFCMoAm9G9GS/8WkgE0oYczWvq3kAygCT2c0dK/hWQATejfjJYeLiQDaEL/ZrT0byEZQBN6OKOlfwvJAJrQvxktPVxIBtCE/s1o6eFCMoAm9G9GS/8WkgE0oYczWvq3kAygCf2b0dLDhWQATejfjJYeLiQDaEAPZ7T0byEZQBN6OKOlfwvJAJrQvxktPVxIBtCE/s1o6d9CMoAm9HBGS/8WkgE0oYczWvq3kAygCf2b0dLDhWQATejfjJb+LSQDaEIPZ7T0byEZQBM2aQ/1bSEZQBOytuN8C31bSAbQhFHelsfHm33ptv9SAXjqd/5A20cAwF0IPsBACD7AQAg+wEAIPsBACD7AQAg+wEAIPsBACD7AQAg+wEAIPsBACD7AQAg+wEAIPsBACD7AQAg+wEAIPsBACD7AQAg+wEAIPsBACD7AQAg+wEAIPsBACD7AQAg+wEAIPsBACD7AQAg+wEAIPsBACD7AQAg+wEAIPsBACD7AQAg+wEAIPsBACD7AQAg+wED8zt/R9hEAcBc/+DvbPgIA7uIHBB9gGAQfYCAEH2AgBB9gIAQfYCAEH2AgBB9gIAQfYCAEH2AgBB9gIAQfYCAEH2AgBB9gIAQfYCAEH2AgBB9gIAQfYCAEH2AgBB9gIAQfYCAEH6D/vvIDhX/4p8r//aztYwHghpaPRz/U9rEAcEs/eej9j7d9JADc1Fd/eB/8r7d9JADc1HFM58faPhIAbms/pvONto8DgBv7kd2Yzm9r+zgAuLGvGNEBGIjfZUQHYBh+5B8xogMwCF8xogMwED9aBH/Z9kEAcHs/8sOPP9n2MQBwBz/0+PjVto8BgHv4R43oAAzDD/72to8AgLv4x/7xto8AgDtYJut0tmj7KAC4sTL3JckH6LVd7me7/5V8gL5aHkO/lHyA/noeeckH6KnFq8BLPkAPLWZF29fJi7hLPkDP7HP/xvJayQfokfdzX1omq+Ldk7ztowTgg87nvjIuk59JPkDMauS+JPkAcauZ+5LkA8QrIPclyQeIU2DuS5IPEJ8rcl+SfIC4XJn7kuQDxOMDuS9JPkAcPpj7kuQDdF8+KVq9+lDuS5IP0G15VuZ+3MSXknyA7mow96Vd8udt/1R9kaXU5rcOzms496V5819ysJZtNzQqHx2ShH67Qe5v+GUHaF5ctubUkaXTtv+1oMtu2GXJb8ZWxepapdu2DwG668ZNlvwmTFWspkWamisA77hDjyX/w5ZuRNY1TtO2DwE66k4tlvwPGrsRWdcszdo+BOikO3ZY8j9ExWpbp5u2DwE66M4NlvwPWKVJ24cQiVGajto+BuicFvor+ddyI7K2Tbpu+xCga1paEyX511Gx2ibppO1DgG5pcdcDyb+GitWWpn654ImW9zWT/HBuRNaVp+mi7WOA7ujANpYN7cE8HG5E1pakq7YPATqjA7kvNfAqK0OiYrVN01nbhwAd0ZHclyQ/QKZiNVmRDHsdyn1J8mtzI7KuuRXJUOpY7kuSX8/cjci6bCoKD53MfUny61Cx2myNDF3NfUnyL7M1cl1WJEOHc1+S/AvciKzN1sgMXcdzX5L8s2yNXJtNRRm2CHJfkvwzVKw2K5IZsGVS5n7S+dyXJP9dtkauy4pkhmuZrIuGzqKZ0Cf5b3MjsjabijJUseW+tE9+VMd8eypWm01FGaYYc19aRHrct6RitVmRzBDFmvvYj/023Iisy9bIDFDsyYz9+BvmRmRtNhVlcNrL5ShfPv2PKH+G0+EfI7vM81bvI7dfseqm8as7x1n35g7ZGpmB+Xgqs+Oyzjxk1eJym55ex2pZvsBJOvlAJ9tO/vY0OLBN160+2bj/1sgvfwVCgj9L23scsCKZYWkik8XZvtqVehES/OLT1mXmy+Ivp0XtV2k6/ciVcbvJX64Oi53yFgtWuf+NyNOvwC741VOcV8Ef5W/82yyLf7TWnpDYGpkhaSaR5QvObndvPgn+pa9anGub4iFiUs0gnKXrZXXJ/7FL01aTn6f7W6XTlneqbGFr5NOvwJMnefUWA2zSbN3aZbZNRRmOpvKYpdvDXcInwU/T7Ox1ZrKbK757Ur0/5T8+f7zN5FePWuUPVv1ljJNskuyLN062k83d7qO2ULHTr8DuSV5SrozYBz9Psm2+/2t44xFglY5nrc0itTUyQ9FcGrM0z/aNeRL8zerJq44nJ6fP2l3Nlxv55odn1g2sEG0v+ct1Ga5FNaCzuyexG9tZZLu3b3EZ+7vf+LMWtkZ++StwGsNfrqqffZ0/vD2GX/7Tj9qaG2lFMgPR5HKl4mxf7Gd+PxvDn5ehm412f350eO9sH/xyn6/8cE06beIEbC358zLqu/AVl/mzPJ9Uo+nF85Z8ObrNndzPf/r3/N6XP34LNyJf/gqcgp+kq/livJsM81bwq6v7aUs3PWyNzCA0uyFBcbaXAzTlV3txAi1mRXqn4/Im3tHhfeP98M26CP7mcL+zoYl7bSV/UjynqYY2iov96uGsGl3Jdlfc2+QGV5OfF775vPltbI388lfgGPxlti4H9nZP4d741909Om1aum1rU1EGoOktx8qzvbhIK8dhX10xVbtvvvlZy909ziKQWfE/zQa/reSXM06qn+AwRlX9/+SGs2Y+3/mZ33dqfhsVe/kr8HJa5rJ6+41/3V3q25odue7ewgBoVvM7TFZne16ds6/jns/ee9pcTsssngGsbxL8ljZ6nu+nGBZX2Vmlusotn+Zsb3Mgnx/9zO//A7s/amNr5Je/Ak+CnyeHv4e3/nX3B9vObVsrkum7W2woXJ3tD9tyJvbLuI+nZdXf+bxxmfxtUpzy81Pwm7zSa+GlXPZT8JPTPYuyhOXIVrq6xUXs50998w/+bEs3Il/+CpyCX62um74X/Hn5vsKqldu2NhWl326zf/zubC+uY7fPg7/YlmtqNuV3e+OmbWk0Kse9x6fJ203Hqkz+H/rDn9/F/geomrZ58ci3nBd/F+vl7Q/ij/zRP9bGjciXvwLH4Bf/suXI/uid4E9OvxctDK5M0n/ij7/v537iT/w3739M0JxbBr+8Whs9iU05ReU4opKdvPjkZfm0erl/bp03fb+xreDnrx+5yvW39wj+n2xjdOTlr8Ax+NvdX8Tm7eAvjnc3tm3ctk3T/9ZvOeNP/enHr339W/c/LGjM7YZ0ygum6bOFV+enAc2z1W6Z0mT3qUXxR9NmY7Ub0vkzP//zdw/+cn87cDQbF3/luy2CsnR24yOohnRa2Rr58CuQ7X8FjsGf7SbcZlXZXwU/OY6pLFq4bXt5a+RvffsXvvEn7n1Y0KQb3bQtv/L66YhNdmFmynKVTuZFkqu5fMWlYbrZNLo4qZ1X5z0MTZSTj/LlvJqdOS2PYrm5yTD1qfb7m7bt3Ih8+SvwdEhnviz+lVflxnivgr86baWR3f+JSa1NRb/++E/abYeo3WRaZmmThowf57slmLvHhfFuILex6YttzcQ/BP+w0rYcwaoqmH50n6C3HWp/nJaZtHIj8vgrkLwI/sNuoe24/Md+Ffz5kwencRsbANX5F/mnvvZP3/m4oGHNLrwaH7/Qk50TahiNt9nxYaecvdfYyqT2tldIjj/DfHv8gRbj7TRLbnLhXY3kPF14df+tkUsvfwWqvXSq/3kYT6offVP8+cu9dObJafRpmdzmL+h9y5rXF7/4tf/2fQ8MGtfnV4Jte2f8e3q1tYLXaK2r9tbI3378TtvHCh/V1yz29ed625998d9eo7W2+puK/jP/TNvHCh/XxzT28WcK0cr0xjjV31T0n338pbYPFhrQtzz27ecJ18LWyJEKmQj6C+Zm0g99SmSffpZr/wq8RmtdIVsj/7IxHfqiL5nsy8/xIV6jtbaQTUX/O/9c20cLjelDKvvwMzRg5jVa6wrZVPQ7j20fLTQo9lzGfvyNaWNr5DgFrUgWfHom5mTGfOzN8hqttQVtjSz49E6s2ezzErJQXqO1tknI3j2CTw/FmPxmN4mIXVDFhi1oU1HBp5diS/5t9vePVytbI0cpbEWy4NNT7WwqfB25f8FrtNZWa2vkI8Gnv1p4JdhryP0rXqO1trBNRQWfPosg+XL/hna2Ro5R3a2R9wSffut48uX+TbZGritwRbLg03cdTr7cv83WyLXV3xq5Ivj0X0eTL/fvsTVybYGbigo+Q9DB5Mv9+2yNXFfI1sglwWcYOpZ8uT/D1si1ha5IFnyGokPJl/uzbI1cW8jWyCXBZzg6kny5v8DWyLWFbioq+AxJB5KfT4pDWMn9GbZGrit4RbLgMywtJz/PytybZH6OrZFrC16RLPgMzS75rdwVlPs6bI1cW/CmooLP8Mzb6a7c12Nr5NqCNxUVfIaohfbKfV22Rq4rfEWy4DNMd+6v3Ndma+TawrZGLgk+Q3XHBst9AFsj1xa+qajgM1x36rDcB7E1cl2BWyOXBJ8hu0OL5T6QrZHrumJFsuAzbDfusdyHsjVybYFbI5cEn6G7YZPlPpytkWu7YlNRwYcbdVnurzE1hF9T6NbIJcGHm7S5pdVdsVum1Be8I5PgQ6nh5Le4f0Pc5m03NCZhWyOXBB92Gkx+BzbljNUip7bwu9uCDwcN7Vws93SV4MNJA69NIvd0l+DDUx9MvtzTZYIPz30g+XJPtwk+vHRl8uWerhN8eO2K5Ms93Sf48JbA5Ms9MRB8eFtA8uWeOAg+vKdm8uWeWAg+vK9G8uWeeAg+nHM++cukzP1E7omD4MN57yd/mayLd828XgexEHy4ZJ/8F2GXe6Ij+HDZ4lXc5Z4ICT7U8Tzwck+UBB/qOUVe7omU4ENd+9DLPbESfKhvl3y5J1KCDyGWyT//L/yLck+cBB/CfPr03bYPAa4j+BDm06dPbR8CXEfwIYzgEy3BhzCCT7QEH8IIPtESfAgj+ERL8CGM4BMtwYcwgk+0BB/CCD7REnwII/hES/AhjOATLcGHMIJPtAQfwgg+0RJ8CCP4REvwIYzgEy3BhzCCT7QEH8IIPtESfAgj+ERL8CGM4BMtwYcwgk+0BB/CCD7REnwII/hES/AhjOATLcGHMIJPtAQfwgg+0RJ8CCP4REvwIYzgEy3BhzCCT7QEH8IIPtESfAgj+ERL8CGM4BMtwYcwgk+0BB/CCD7REnwII/hES/AhjOATLcGHMIJPtAQfwgg+0RJ8CCP4REvwIYzgEy3BhzCCT7QEH8IIPtESfAgj+ERL8CGM4BMtwYcwgk+0BB/CCD7REnwII/hES/ABBkLw4bJFni/3b46Ob0FsBB8uS9J0tn8zS/O2jwauJPhwWRH8Q+cFn3gJPlxWBn+1e1PwiZfgw2VJul2nSfXmPvh5Msm2m7aPC4IIPlyWpMkmTRflm7vgl5f8hemi7SODAIIPlxXBL0qflW9Wwc/TdDVeTNLdH0EkBB8uK4M/StPxwz74+/iP03TU9qFBfYIPl5XBL/5nvdwHP90N6C/T1DA+ERF8uKwK/nJVTsYvg784TNI83MmFKAg+XFYFvxy5z6vg5/sbuMV/CD4REXy4bBf8h0m6coVPxAQfLtsHf1kE3hg+8RJ8uGwf/IdNmq6ezNKZm6VDVAQfLjsEvyh9epiHP1/MzMMnLoIPlx2DP9rvonZYaWurZGIi+HBZnhx2TJsnyWL3/7NsZgCfuAg+wEAIPsBACD7AQAg+wEAIPsBACD7AQAg+wEAIPsBACD6E+fTpU9uHANcRfAgj+ERL8CGM4BMtwYcwgk+0BB/CCD7REnwII/hES/AhjOATLcGHMIJPtAQfwgg+0RJ8CCP4REvwIYzgEy3BhzCCT7QEH8IIPtESfAgj+ERL8CGM4BMtwYcwgk+0BB/CCD7REnwII/hES/AhjOATLcGHMIJPtAQfwgg+0RJ8CCP4REvwIYzgEy3BhzCCT7QEH8IIPtESfAgj+ERL8KG275aK4Jf/71faPhgIJvhQ25/7dPLn2z4YCCb4UNsXp97/hbaPBcIJPtT25Sn4f7HtY4Fwgg/1fc+IDjETfKjvCyM6xEzwob4vjegQM8GHAN8zokPEBB8CfGFEh4gJPgT40ogOERN8CPE9IzrES/AhxBdGdIiX4EOIL43oEC/BhyDfM6JDtAQfgnxhRIdoCT4E+dKIDtESfAjzPSM6xErwIcwXRnSIleBDmC+N6BArwYcwy3+p7SOAKwk+hFgm63S2aPso4CqCD/WVuS9JPlESfKhrl/vZ7n8ln/gIPtSzPIZ+KfnESfChjueRl3yiJPhw2eJV4CWfCAk+XLKYFW1fJy/iLvlER/DhvH3ul6/fI/lERvDhnPdzX1omq+Ldk7zto4RaBB/edz73lXGZ/EzyiYHgw3tq5L4k+cRC8OFtNXNfknziIPjwloDclySfGAg+vBaY+5Lk032CDy9dkfuS5NN1gg/PXZn7kuTTbYIPT30g9yXJp8sEH04+mPuS5NNdgg8H+aRo9epDuS9JPl0l+LCTZ2Xux018KcmnmwQfSg3mvrRL/rztn6ovspTazv3WCT40nvvSvPkvOVjLthsalXNDkoIPN8j9Db/sAM2Ly9acOrJ0eu5vUvAZuht2WfKbsT1fMU5W6fbcuwWfYbtxkyW/CdPzFeNokaZn5woIPkN2hx5L/octz9+I5GScpmffL/gM151aLPkfND5/I5KTWZqdfb/gM1R37LDkf8ilinG0Tjdn3y/4DNOdGyz5H7BKk7YPIRKjNB2d/QDBZ4ha6K/kX+vSjUiONun6/AcIPsPT0pooyb/OxYpxMEkn5z9A8BmaFnc9kPxrXKwYB2l64ZdL8BmWlvc1k/xwl25EcpCn6eL8Rwg+Q9KBbSwb2oN5OC7eiOQgSVcXPkLwGY4O5L7UwKusDMnlirE3TWcXPkLwGYqO5L4k+QGyixVjp8aKZMFnGDqU+5Lk13bxRiR788srkgWfIehY7kuSX8/84o1I9mpsKir49F8Hc1+S/DpsjVzb6vKmooJP33U09yXJv8zWyHXVWZEs+PRbh3NfkvwLbI1c26WtkUuCT591PPclyT/L1si11dlUVPDprwhyX5L8M2yNXFudFcmCT08tkzL3k87nviT577I1cl21ViQLPr20TNZFQ2fRTOiT/LfZGrm2WpuKCj49FFvuS/vkR3XMt2dr5NpqbSoq+PROjLkvLSI97luyNXJttVYkCz49E2vuYz/227A1cl2Xt0YuCT69EnsyYz/+htkaubZ6m4oKPj3SXi6X+ZP7raOP3GdsP/nb7DiMkmdZq8Ftf2vk6qbxqzvHWffmDl3eGrkk+PTGx1OZHZd15jVWLZ5spuWE/90cm2X5Aifp5APzbdpOfvGz78dRlquWZ8Hff2vkl78CdYNfvpJZadbSuuCaK5IFn55oIpPFWbvalXoREvxNEfik6HwZgWXR/skqTacfmWHZcvK36Xr3rZO2R1TuvzXy6VdgF/y8fOr2KvijfPHq81bZLvrbVv6mamyNXBJ8eqGZRGan8/VJ8C991cW6uriap+tluTK0+N/lNv3gpWmryT9c2I/S/YVs/iT7yzs+BLSwNfLpV+DJk7waiwH21/yjrKV5pDU3FRV8eqCpPGbp9nBN+yT4aZqdvc7M9+f4qhwJ2cW/gfnjbSZ/vhsfmFYRGZUrltOsun7My7fXHxmvCtLC1sinX4Hdk7ykXBmxD36eZNtd+cdJ/urzdo+No5Zer6XG1sglwSd6zaUxS/Ns35gnwd+snrzqeHJyeH++fzZdtv7wdp2Lwvv9XMEm5fOUTVW+4idal4MV5ShP8UCQbSfrm8yN/91v/FkLWyO//BU4jeEvqwe+dJ0/vD2Gv/uTRTujYHVXJAs+kWtyuVJxti/2M7+fjeHPyyf6s9Huz4+OR7CuTvZqFDU/XJNOm9gSoLXkL9fFd939WFm6Ln7wUTUJZFalvnjHDS5iP//p3/N7Xx5FC1sjv/wVOAU/SVfzxXg3Geb94M/amVdUZ2vkkuATtWY3JCjO9uK8ru5YvjiBFrMivdNxeRPv6PjOooar2TRdb8qhnOzwpRqZuNdW8otHr9VuQGd/6Tgux6gmu3vRNzmazwvffN78NrZGfvkrcAz+MluXD3O7p3BvBT8rnvQVvyWrVqbp1N1UVPCJWNNbjpVne3FtXl7GvrpiqnbffOfzNtUVf3lZmDQc/NaSX04uLZ/SFIGrHt3G5X8W/zGd36jBn+/8zO87Nb+NrZFf/gq8nJa5rN5+f1pmOm5lA7x1zV83wSdaze8wWZ3teTWQ8Dru+ey94Gfpejaercr5fM0Hv6WNnpf7eUbJaQgr3z0MXLiFfa3Pj37m9/+B3R+1sTXyy1+BJ8HPkywr72a8E/xZnifJdr0b5L+z2iuSBZ9I3WJD4epsf9iW5X4Z9/G0+G5vT7XcT4FelkPb81Pwm3xq38JLueynZBbBP9ykLp9kLJJqjdkNvt/nT33zD/5sS1sjv/wVOAV/Wz7YTd8PfnJ4o4Xt3jbpX/rsnK8cPlDwidJt9o/fne1FubfPg78oLtzS1ab8bm/ctJ3tT/FZOj1N3m46VmXy/9Af/vwu9j9AVbDXU+GXxV99fvuD+CN/9I8FrXa+0a/AMfj5bqLS6FLwW1g7UD7z+suPZ/3UX/msOlcEnyjdMvjlOTt6Ept88mREJTs5vH+yX2RVXBaWIyHVc+u86fuNbQX/OK+8ur6vfrblNJ3cI/h/so1r5Ze/Asfgb3cP4Zsawb//vMw0/avfOedXv/H4+AvffxB8onW7IZ1qNsqzhVfnpwGNny68Kj51N4ux0VjthnT+zM///N2DX04/Kf9Syqcv+zGWcuzqxkdQDem0sjXy4Vcg2/8KHIM/2024zaoHwDPBn9x/sViNrZG/9Z3v/7XH7ws+EbvRTduHaqb5k+BfvEm5Sifzh1G1qUJ5gZduylk7zQ3ht/PqvMdtFcqHmu20mo2/KbeI265uMtX8VPv9Tdt2tkZ++SvwdEhnviweeFflxnjv3LTN5+U/1f0fpuptKvr1v/5Lgk/MbjIts7RJQ8aPDzNZtuV/jPez85o6prZm4h+CXz5bKZtfPYBtq9WmN3nsOdT+OC0zaWVXmuOvQPIi+A+7hbbj8gHw3LTMVQsvTFxzU9Fv/43vCD5Ra3bh1fj4hZ7snFBDPsuybLYvRTl7L2kqiW1vlbw7iCeLzJbzGz3TqEZyni68uv/WyKWXvwLV5KTdDKXxJEvKpznFn7/eS2ecJNmk+JQ2NtJZ1r2++Jvf+O8KPnHr8yvBdiL3d/Jqa4WWdiGLUM2tkR8efvFr/z3BJ3Z9zWJff663/dkX/13vNVp5CNlU9Nv/suATvz6msY8/U4ht669uGI36m4p+61Hw6YO+5bFvP0+4FrZGjtQiYErYjwo+/dCnRPbpZ7n2r6CFrZEjVXdr5NK/Ivj0RV8y2Zef40Nq34gkZFPRf1Xw6Y8+pLIPP0MDZi0sWI1UyKai/33Bp09iz2Xsx9+YNrZGjlPQimTBp2diTmbMx96sVrZGjtMmZEWy4NM7sWazz0vIQoXciBy4Scg+fYJPD8WY/GY3iYhdUMWGLWhTUcGnl2JL/m32949XK1sjRylsRbLg01PtbCp8Hbl/oZ2tkaNUb2vkA8Gnv1p4JdhryP0rQTcihy1sU1HBp88iSL7cv6GdrZFjVHtr5B3Bp986nny5f5OtkesKXJEs+PRdh5Mv92+zNXJt9bdGrgg+/dfR5Mv9e2yNXFvgpqKCzxB0MPly/z5bI9cVsjVySfAZho4lX+7PsDVybaErkgWfoehQ8uX+LFsj1xayNXJJ8BmOjiRf7i+wNXJtoZuKCj5D0oHk55PiEFZyf4atkesKXpEs+AxLy8nPszL3JpmfY2vk2oJXJAs+Q7NLfit3BeW+Dlsj1xa8qajgMzzzdror9/XYGrm24E1FBZ8haqG9cl+XrZHrCl+RLPgM0537K/e12Rq5trCtkUuCz1DdscFyH8DWyLWFbyoq+AzXnTos90FsjVxX4NbIJcFnyO7QYrkPZGvkuq5YkSz4DNuNeyz3oWyNXFvg1sglwWfobthkuQ9na+TarthUVPDhRl2W+2tMDeHXFLo1cknw4SZtbml1V+yWKfUF78gk+FBqOPkt7t8Qt3nbDY1J2NbIJcGHnQaT34FNOWO1yKkt/O624MNBQzsXyz1dJfhw0sBrk8g93SX48NQHky/3dJngw3MfSL7c022CDy9dmXy5p+sEH167IvlyT/cJPrwlMPlyTwwEH94WkHy5Jw6CD++pmXy5JxaCD++rkXy5Jx6CD+ecT/4yKXM/kXviIPhw3vvJXybr4l0zr9dBLAQfLtkn/0XY5Z7oCD5ctngVd7knQoIPdTwPvNwTJcGHek6Rl3siJfhQ1z70ck+sBB/q2yVf7omU4EOIZfK3/vbfkXviJPgQ5tOn77Z9CHAdwYcwnz59avsQ4DqCD2EEn2gJPoQRfKIl+BBG8ImW4EMYwSdagg9hBJ9oCT6EEXyiJfgQRvCJluBDGMEnWoIPYQSfaAk+hBF8oiX4EEbwiZbgQxjBJ1qCD2EEn2gJPoQRfKIl+BBG8ImW4EMYwSdagg9hBJ9oCT6EEXyiJfgQRvCJluBDGMEnWoIPYQSfaAk+hBF8oiX4EEbwiZbgQxjBJ1qCDzAQgg+XjbNsvn9zm43aPhq4kuDDZUmarpa7N7M0b/to4EqCD5cVwU+3uzcFn3gJPlyWpNM03Q3lHIM/ypdtHxaEEXy4LEmTLJ1Wb+6Cv8yKa/50Pf/Yl4X7Eny4rAj+Yp1uyjer4C/XabqaFcnftH1kEEDw4bIi+MX/rRcP++AXb48fHkZZujasQ0QEHy4rg/8wTScP++Cvd7dwR2lqUIeICD5cVgU/r/JeBT9Nx9Wfp+WfQywEHy6rgv+wLSfjl8HPD1N2poJPTAQfLtsFf1mO5Ag+8RJ8uGwX/Id5EXpDOsRL8OGyffCLy/upm7bES/DhskPwF+s0PU3LXExMyyQqgg+XHYJfbaqzX3g1LRdejds+Mggg+HDZMfgP03S3tcLU1grER/DhOnm+aPsQIIzgAwyE4AMMhOADDITgAwyE4AMMhOADDITgAwyE4AMMhOBDmE+fPrV9CHAdwYcwgk+0BB/CCD7REnwII/hES/AhjOATLcGHMIJPtAQfavtuqQh++f9+pe2DgWCCD7X9uU8nf77tg4Fggg+1fXHq/V9o+1ggnOBDbV+egv8X2z4WCCf4UN/3jOgQM8GH+r4wokPMBB/q+9KIDjETfAjwPSM6REzwIcAXRnSImOBDgC+N6BAxwYcQ3zOiQ7wEH0J8YUSHeAk+hPjSiA7xEnwI8j0jOkRL8CHIF0Z0iJbgQ5AvjegQLcGHMN8zokOsBB/CfGFEh1gJPoT50ogOsRJ8CLP8H7R9BHAlwYcQy2SdzhZtHwVcRfChvjL3JcknSoIPde1yP9v9r+QTH8GHepbH0C8lnzgJPtTxPPKST5QEHy5bvAq85BMhwYdLFrOi7evkRdwln+gIPpy3z/3y9Xskn8gIPpzzfu5Ly2RVvHuSt32UUIvgw/vO574yLpOfST4xEHx4T43clySfWAg+vK1m7kuSTxwEH94SkPuS5BMDwYfXAnNfkny6T/DhpStyX5J8uk7w4bkrc1+SfLpN8OGpD+S+JPl0meDDyQdzX5J8ukvw4SCfFK1efSj3JcmnqwQfdvKszP24iS8l+XST4EOpwdyXdsmft/1T9UWWUtu53zrBh8ZzX5o3/yUHa9l2Q6NybkhS8OEGub/hlx2geXHZmlNHlk7P/U0KPkN3wy5LfjO25yvGySrdnnu34DNsN26y5Ddher5iHC3S9OxcAcFnyO7QY8n/sOX5G5GcjNP07PsFn+G6U4sl/4PG529EcjJLs7PvF3yG6o4dlvwPuVQxjtbp5uz7BZ9hunODJf8DVmnS9iFEYpSmo7MfIPgMUQv9lfxrXboRydEmXZ//AMFneFpaEyX517lYMQ4m6eT8Bwg+Q9PirgeSf42LFeMgTS/8cgk+w9LyvmaSH+7SjUgO8jRdnP8IwWdIOrCNZUN7MA/HxRuRHCTp6sJHCD7D0YHclxp4lZUhuVwx9qbp7MJHCD5D0ZHclyQ/QHaxYuzUWJEs+AxDh3JfkvzaLt6IZG9+eUWy4DMEHct9SfLrmV+8EclejU1FBZ/+62DuS5Jfh62Ra1td3lRU8Om7jua+JPmX2Rq5rjorkgWffutw7kuSf4GtkWu7tDVySfDps47nviT5Z9kaubY6m4oKPv0VQe5Lkn+GrZFrq7MiWfDpqWVS5n7S+dyXJP9dtkauq9aKZMGnl5bJumjoLJoJfZL/Nlsj11ZrU1HBp4diy31pn/yojvn2bI1cW61NRQWf3okx96VFpMd9S7ZGrq3WimTBp2dizX3sx34btkau6/LWyCXBp1diT2bsx98wWyPXVm9TUcGnRzqSy9FH7jO2/zNss+MwSp5lrQa39a2Rk3JWaPZyplD+zhKnRd7eXffLWyOXBJ/e+Hgqs+OyzrzGqsUnn7VXThlfli9wkk4+cOa3nfziZ9+PoyxXLc+Cv/vWyHl6/ImrzAcEP99Oy5e2mbUzBlVzRbLg0xNNZLJI92pX6kVA8LfZTlXHZXHWT1ZpOv3ItV7Lyd+m6923TtoeUbn71shFyg/hrDK/yEdvBH+Zv34ONy4+c5qV/26t7OZcY2vkkuDTC80ksrxW3+7efBL8ml+1uByelytD18uH5Tb94KVpq8k/XNiP0n3p8ifZX97xIeD+WyOXwV/vynnKfFZj8VfR+1n5eaNZO5v/1NxUVPDpgabymKXbwzXtk+AXz/LrXLRtqxmE693p/vH5420mf76L1rSKyGhVjVZVFczLt9cfGa8Kcv+tkfN0ethkuMp8noyPwR+NZ5Nx9aMvkuTV5x2HwaaHZ4l3VWNr5JLgE73m0pilebZvzJPgb1ZPXnU8OXn+uXk1DpIfnlk3sEK0xeRPysvcTfXgV/xE66x46lP+dMUDQbadrG8yN/53v/Fn998aOU+z+f4x/+UYfrK7T7N9eGsMf3u6u7xo4wK/7opkwSdyTS5XKoK/2M/8fnZKz8uxntlo9+dHLz+3rEJ+uCadNrElQGvJX66L77qufqIsXRc/+KiaBDKrUl+84wbD1J//9O/5vS+P4v6jI0Xwi0e76t/wRfCLpG5G+ax6QH8d/DqjPrdUZ2vkkuATtWY3JCiCX5zi1R3LFyfQYlakd1p0Lj959gHj3dDv5jDJo6ECtJX84jJ3tRvQ2V86jssxqsnuXvRNjubzwjefN7+FrZHL4O8f818EP1lV/7LT8n2vg9/2rv11NxUVfCLW9JZjZfCLU7q8jH11Sle7b77/qavdE4Ok4eC3lvxycmn5lKZoW/XoNi7/s/iP6fxGDf5852d+36n5LWyNXAa/vAGzeG9a5qT8g1fBH7W9x9u65q+b4BOt5neYrIKfV1drr+NePp1/9zPn+7kdzQe/pY2el/t5RslpCCvfPQzUu4Ud7POjn/n9f2D3Ry1sjVwFf/eY/zL4y2R2mHv7KvjLloNfe0Wy4BOpW2woXAW/vAG3fBX88bT4bu9PtZztp2HOT8Fv8jl+Cy/lsp+SWQT/cJO6fJKxSKZpepML78+f+uYf/Nl2tkbeBX9UPua/CP68fKK1fif4be/5s0n/0mfnfOXwgYJPlG6zf/wu+Mt1un0e/MW2ONtXm/K7vX3TdrmfjXlKQdOxKpP/h/7w53ex/wGq4L+eCr8s/urz2x/EH/mjfyxg8VtTdsGvHvNfBH+V7kf2s7dv2p4eBFsYzZ+kf/nxrJ/6K59V54rgE6VbBr+M3OjJKZ1PnoyoZCdPPvFYgOX+uXXe9P3GtoI/Oqwcra7vq59tOU0n9wj+n2xha+R98JerdPs8+Iv9EFf6dvDHpwf4cbq6+z32NP2r3znnV7/x+PgL338QfKJ1uyGdajbKs4VXF6cBJccVQsWn7mYxNhqr3ZDOn/n5n7978Mtr1/IvZVb8hPsxluLpzPjGR/DNf+1n2xkm2Qd/N0vpafD3t2Xn7wS/eAKw2o2ij9b33v+nztbI3/rO9//a4/cFn4jd6KbtQzXT/MkpXeMm5fb4jL4oQrrZpE1O02vn1XmP2yqUDzXbaTUbv/i5smS7uskWlqfa72/atrI18iH41e3pF0M6k0VeXQks3gp++e++Heeb4v33Xh1cd1PRr//1XxJ8YnaTaZmlTRo2fpydloSOdwP8jc1kaWsm/iH45bOVsvnVA9i22mbhJo89h9ofp2Umbby64TH45WP+s+Bvqn/WaTmWn7y1W+buryn94LZ516m5qei3/8Z3BJ+oNbvwanz8Qq92Trj0iacG5kmWJU0lse2tkncH8WSR2XJ+o2ca1UjO04VXd98aubRIDo/U86T8R6z20tn964622Wy+LP4kyRdv/XYsx8U/fLZtYXrmsu71xd/8xr8u+MStz68E24nc38nnP/1vPN9aoaV9hiNUc2vkh4df/Nr/UPCJXV+z2Nef621/9sV/13uNVh5CNhX99tcEn/j1MY19/JlCbNt+dcN41N9U9FuPgk8f9C2Pfft5wt1/a+RYLQKmhP2PBJ9+6FMi+/SzXPtX0Pb+k/GouzVy6U8JPn3Rl0z25ef4kNo3IgnZVPR/LPj0Rx9S2YefoQGzFtYvRSpkU9H/ieDTJ7HnMvbjb0wLWyNHKmhFsuDTMzEnM+Zjb1YbWyNHahOyIlnw6Z1Ys9nnJWShQm5EDtwkZJ8+waeHYkx+s5tExC6oYsMWtKmo4NNLsSX/Nvv7x6vlV5CKSNiKZMGnp9rZVPg6cv9CK1sjx6ne1sgHgk9/tfBKsNeQ+1eCbkQOW9imooJPn0WQfLl/QytbI0ep9tbIO4JPv3U8+XL/Jlsj1xW4Ilnw6bsOJ1/u32Zr5Nrqb41cEXz6r6PJl/v32Bq5tsBNRQWfIehg8uX+fbZGritka+SS4DMMHUu+3J9ha+TaQlckCz5D0aHky/1ZtkauLWRr5JLgMxwdSb7cX2Br5NpCNxUVfIakA8nPJ8UhrOT+DFsj1xW8IlnwGZaWk59nZe5NMj/H1si1Ba9IFnyGZpf8Vu4Kyn0dtkauLXhTUcFneObtdFfu67E1cm3Bm4oKPkPUQnvlvi5bI9cVviJZ8BmmO/dX7muzNXJtYVsjlwSfobpjg+U+gK2RawvfVFTwGa47dVjug9gaua7ArZFLgs+Q3aHFch/I1sh1XbEiWfAZthv3WO5D2Rq5tsCtkUuCz9DdsMlyH87WyLVdsamo4MONuiz315gawq8pdGvkkuDDTdrc0uqu2C1T6gvekUnwodRw8lvcvyFu87YbGpOwrZFLgg87DSa/A5tyxmqRU1v43W3Bh4OGdi6We7pK8OGkgdcmkXu6S/DhqQ8mX+7pMsGH5z6QfLmn2wQfXroy+XJP1wk+vHZF8uWe7hN8eEtg8uWeGAg+vC0g+XJPHAQf3lMz+XJPLAQf3lcj+XJPPAQfzjmf/GVS5n4i98RB8OG895O/TNbFu2Zer4NYCD5csk/+i7DLPdERfLhs8Sruck+EBB/qeB54uSdKgg/1nCIv90RK8KGufejlnlgJPtS3S77cEynBhxDL5G/97b8j98RJ8CHMp0/fbfsQ4DqCD2E+ffrU9iHAdQQfwgg+0RJ8CCP4REvwIYzgEy3BhzCCT7QEH8IIPtESfAgj+ERL8CGM4BMtwYcwgk+0BB/CCD7REnwII/hES/AhjOATLcGHMIJPtAQfwgg+0RJ8CCP4REvwIYzgEy3BhzCCT7QEH8IIPtESfAgj+ERL8CGM4BMtwYcwgk+0BB/CCD7REnwII/hES/AhjOATLcGHMIJPtAQfwgg+0RJ8CCP4REvwIYzgEy3BhzCCT7QEH8IIPtESfAgj+ERL8CGM4BMtwYcwgk+0BB/CCD7REnwII/hES/AhjOATLcGHMIJPtAQfwgg+0RJ8CCP4REvwIYzgEy3BhzCCT7QEH8IIPtESfAgj+ERL8CGM4BMtwYcwgk+0BB9gIAQfLhtnWb5/M8tGbR8NXEnw4bIkTaf7N9M0/9CXgvYIPlxWBD9Ndm8KPvESfLgsSVfpelG9eQx+LvzERvDhsiRNpmlWvbkL/mJaXPOna80nKoIPlxXBH6XpvHyzCv5inaarLN3/EURC8OGyIvgP23S9fNgHf5auxg8PeZau2j4yCCD4cFkZ/OUq3T7sg7+/hZu7g0tUBB8uK4P/MK/yvi7+Z7QP/dKYDlERfLisCv7DpJyMnxWtL67sl9Wfrw+TNSEGgg+X7YK/KPsu+MRL8OGyXfAfNul6kRnSIVqCD5ftg/8wTbPMTVuiJfhw2SH4xaX9ej8ts/jfkWmZxEXw4bJD8B+26XHhVWbhFbERfLjsGPzlajeKM6q2VlgZ0CEqgg9XWeb5su1jgDCCDzAQgg8wEIIPMBCCDzAQgg8wEIIPMBCCDzAQgg8wEIIPQb776dOnto8BriP4EETwiZfgQxDBJ16CD0EEn3gJPgQRfOIl+BBE8ImX4EMQwSdegg9BBJ94CT4EEXziJfgQRPCJl+BDEMEnXoIPQQSfeAk+BBF84iX4EETwiZfgQxDBJ16CD0EEn3gJPgQRfOIl+BBE8ImX4EMQwSdegg9BBJ94CT4EEXziJfgQRPCJl+BDEMEnXoIPQQSfeAk+BBF84iX4EETwiZfgQ12/8t3Cv1kEv/z/bR8MhBN8qOvXPp38T9s+GAgn+FDbr5+C/z9r+1ggnOBDbb9xCv6fb/tYIJzgQ22nMZ3/eduHAlcQfKjv143oEDPBh/p+w4gOMRN8qO/XjOgQM8GHAL9uRIeICT4E+A0jOkRM8CHArxnRIWKCDyF+3YgO8RJ8CPEbRnSIl+BDiF8zokO8BB+C/LoRHaIl+BDkN4zoEC3BhyC/ZkSHaAk+hPl1IzrESvAhzP/CiA6xEnwI8y8t2z4CuJLgQ4jFLF0nkk+cBB/qK3JfknziJPhQV5X7dTKTfCIl+FBPPilCvypDv5B84iT4UEeelbkf7/9L8omS4MNlz3NfknwiJPhwyevclySf6Ag+nPd27kuST2QEH855P/clyScqgg/vO5/7kuQTEcGH91zOfWmf/EXbRwsXCT68rV7uS4tkXXzoTPLpOsGHt9TPfWkp+cRA8OG1sNyXJJ8ICD68FJ77kuTTeYIPz82vyn1J8uk4wYenxqui2dn8ys+WfDpN8OFkl/v8A19B8ukwwYeDj+e+JPl0luDDTjO5L0k+HSX4UGou9yXJb1aWUtu5G1CCD03nviT5DVq23dConNvXSfCh+dyXJL8x8+KyNaeOLJ2e+5sUfIbuNrkvLZPyS09u8aWHZXu+Ypys0u25dws+w3a73N/jyw/E9HzFOFqk6dlfNsFnyO7QY8n/sOX5G5GcjNP07PsFn+G6U4sl/4PG529EcjJLs7PvF3yG6o4dlvwPuVQxjtbp5uz7BZ9Buvf9VMn/gFWatH0IkRil6ejsBwg+A9TGjEnJv9alG5EcbdL1+Q8QfAanrQnykn+dixXjYJJOzn+A4DMwba6HkvxrXKwYB2l64XUcBJ9BaXv5q+SHu3QjkoM8TS/8Zgs+A9J27kuSH+jijUgOknR14SMEn8HoQu5Lkh/kcsXYm6azCx8h+AxEV3Jf+tjrKA5MdrFi7NRYkSz4DEKXcl+6/pXSB+fijUj25pdXJAs+A9C13Jdyya9lfvFGJHs1NhUVfHqvi7kvSX4dtkaubXV5U1HBp+e6mvuS5F9ma+S66qxIFnx6bdHh3Jck/wJbI9d2aWvkkuDTY4tZkdN10tnclyT/LFsj11ZnU1HBp7f2ue98LyT/DFsj11ZnRbLg01Ox5L4k+e+yNXJdtVYkCz69FFPuS5L/Nlsj11ZrU1HBp4diy31J8t9ia+Taam0qKvj0Toy5L0n+a7ZGrq3WimTBp2dizX1J8l+yNXJdl7dGLgk+vRJz7kv5pEx+vMffMFsj11ZvU1HBp0fay/3iaZfyj0z8b/8ha5JtD2+Os6zVRQwf3xo5L1cjJa/mdr6+FzzK88v/bjU+5KxZOecoeznxKK+xYuqiy1sjlwSf3vh4KotP3392EjT9u/rO2e40Hk3Lo9i2+nN8zOZYw8W65SH0K7ZGfvFvWDf4xceVptvxu0lP0r3V5trsJ+U+EWeDn1wZ/5orkgWfnmgik8VX2AcuKPhFF9PVdHfGjdbpalL894f2cG85+Vm62n3ryTGeLblia+Tib267e6v6N1zm+Vv/mnn+4gcroptlWfk6Bev35oEm6TorlZt1XLndQ3Ugo5dPE54H/7q94mpsjVwSfHqhmUSWl2+70/1JIsabS191Ut1oTao6rsqHjMX0ozvAtJr84gFsW/7/+f6nWOZPBqwWdxxUv2Zr5Lf+DWs8fO+jO9qs3n2QOX6V8fTaHTzfPpDnwb9uZXHNTUUFnx5o6lZncWG+v7h9ct4VT7JnZyOX7y6ulpu8ustYff7kwy/T1GbyN9W90uVuQCcvL3vTWXUg1Ut1rWb3OqhrtkYunqTtP6v6N1wkyfFfczHfZvvRmCR57yp7OX2v+KffifH+gWiRzLJkvnsreRglk/Krz7ezw4jY8d3lf8xm42X1JcZJ9f7FeDYZL59974frg19ja+SS4BO95iYzFrVe7wZYn5x3i1nxHD7bf/nixD44fsPZk4Huw+fNG1gw1GLys7KZ2+opS3GVvcqKv+HpsnogyJLJ+iYbFv/uN/7smq2Rixbv53K+HMM/DNPvPur1GP7+reXqnYeZJ78TafUdNrsvOFlWn17913pZXnukWfmPNl7vvl/59miyu0NQfondGP7+jsDs4Xnw59cFv+6KZMEnck3OXS9OvPFuIuCzC61l+Tx/VV0T5unR8QOKE3gxT3YXa7P9DblGJl60l/ziiUqS7wZ0VlWx8iqiuwDfZq7k5z/9e37viz+6amvk4i9+k67Lf6uXwV+ls3yxXVdf80zwiwe6t4fDT78Tu6Gm4lOmeZ5U0c6rFylO1mnxrCjffY9F9e7Nev+90+1otvutqYK/KP8gn1Xf6ukvS35d8OtsjVwSfKLW7FKl8qzJqjNu8+K8q16DtniqvsyPjtGbptWm+9XAz3EGRkO7+raV/CRdr6q/gsPNwGqC5Go3UHWTmZqfF775vPlXbY1c/htOq+dcL4I/n1Z3oLfV+84Ff/zO1fIx+PPdGH62u3iv/oby3e3+4rEiqd6zLR/7d9f25YNDvnuMzE/BT6bVhNNp+TjaQPDrbioq+ESs6ZWp5Ym3SHfn4MsTqBzZyd75rHS6mc+qEe8nwW9o06+Wkj9ND5fJq+rhbVP+3RQpnNzq5Ug+3/mZ33dq/lVbI5fHOaqeGrw9LbP6Qc4Gf/Ru8HezdIqr9fXuWcJ4/x3n5aeX//H0+eFhn8/y/x8mW56C//RHbCD465qbigo+0Wp+I4LqxKtm27xx3o2z94O/v9J7FvzGhj1aSf5oN0xdXrMePJQ/Xnqr5n9+9DO//w/s/uiqrZGr49yW995fBX+zLXI9vRj89zYpOM7D3/1blEM2+2mayeFz8t2tm+r7PX334RFnegr+MplVDx6NBL/2KJvgE6lb7DuzO/HKmZUvz7vqpRJXb+/rMt3ftC1HbieNjuEfv3sLyd8nsUjn4S51NUCxXaUfXGTwjs+f+uYf/Nlrt0au/uKX5aSVF8GvVsSlNYL/3tqnpByTrwbt8/1nHCSHT9//2pTfb3F69+zhcK2QHYM/L0cB100Ff5P+pc/O+crhAwWfKN1mm7HDWZvmz8+7vLrdNn9476btdv//y0u5XfybDf4++f/L/9Xnd7H/u6iy9rp+5SKDxe0P4o/80T921d/h7pOKp1ujF8GfpfuR/UvBf++ZXHKs9mp/hZ+//PQnwX+2aGz76gp/ehjtbyT4k/QvP571U3/ls+pyQfCJ0i2DX6Rh9XR23Lgcz97unuWPsqPt4f3b/YYv5XP38f7taxdMvueOwf9fPwv+4Q7msvz5R9W4wXKdbu4R/D951b4O+3/DSTp9EfzddKNyVOrhbPDH6Ts7dB6Cv9iv5U2fjDgdg38a0lk/eSL0agx/sV/Tnb4M/rNFbgE/9F/9zjm/+o3Hx1/4/oPgE63bDemURXtylVecrNPxudGU0WH8tojIsojBsnrC3uSR7Yd0/jc///P3KP6z4C9XabV/Wvk0Zp6uR/uf98ZH8M1/7Wev3Rp5/2+4WKer58Hf3ddcpheCv0nfe6w+3vpNdiPm+9+R5Wy8PAU/PX7kZP/YP9ssDyu15sfg728Mz6tv9uGng5e3Rv7Wd77/1x6/L/hE7EY3bR+qi7wnwZ9dGknOihiPknV1gm+LQ5pP0iY3oWlnns4hifNyEHo2rX6gbbqeJLPVjcfw9zdtr5zu/yTcL4d0VqPFbL1bSPtW8PM8L+da7R7V9p4O75zm+uyWZuXVerxRNTvzjeAvql/O0W7tdvFlk2fz8FfpZJHP0ul+0ubxm4yzK4Z06m0q+vW//kuCT8xuMS2zkqUhQ6nL6W7yRhWKyZO3m9DWTPxjEvPd7cXdD1ftLja5xUT8Q+2P0zKT6xYrH/8Npy+CP9r9w5R/n9m7u2XuF84eZc/GZbLTBz9ZLLtePrwV/MNK2+pXYbzbZvO00nazX4W72i1xe/JNrrjar7mp6Lf/xncEn6g1m/zkMCi7eLJzQg3LzSzL9k1ejmfZ5Or9c19qe6vk3Y/0ZFx5Mb7R5mnVSM7ThVdXbI1cOv4bjqp/w2ovnbz611xsssl4sfu3fbWXzmHPjBc7WY7XT8bpT78T4913yZMs2+2nvNj9weLw5+PdEWTZbL/d8rz8DVlU79jtpTPaZrN58dSg/JbJ028SPhV1WXdT0b/5jf+t4BO3Pr8sYCdyfyef//S/8XxrhSu2Rm7eKIaXWKy5NfLDwy9+7U8LPrHra/KHlPuHhz/74r/rvUbrrW27cBCXD7LulLBv/13BJ359fCXYYeX+te2HX92wCeMILvADNhX91qPg0wd9y2Pffp5w12yNPEyLgE1Ff1Pw6Yc+JbJPP8uVrtoaeZjqbo1c+l2CT1/0JZN9+Tk+pPaNSEI2Ff1Rwac/+pDKPvwMDZg1vDdFj4VsKvpvCT59Ensu+3j7+SpXbY08SEErkgWfnok5+X2dYBruuq2RB2kTsiJZ8OmdWJMv9ychNyIHbhKyqajg00MxJl/unwqq2LAFbSoq+PRSbMmX++eu2xp5iMJWJAs+PRVT8uX+hSu3Rh6ielsjHwg+vRVL8uX+laAbkcMWtqmo4NNj++R3ev8ruX/DlVsjD1DtrZF3BJ9eWyTlq1DMOpt8uX9TJ7ZGjkLgimTBp+eWHU6+3L+tG1sjR6H+1sgVwaf3upp8uX9PN7ZGjkLgpqKCzwB0Mfly/z5bI9cVsjVySfAZhK4lfy7377M1cm2hK5IFn4HoUvLHq+JQMlF7h62RawvZGrkk+AxGV5K/y729wd5la+TaQjcVFXwGpAvJl/uLbI1cV/CKZMFnUNpOvtxfZmvk2oJXJAs+A9Nm8uW+Dlsj1xa8qajgMzhtJV/u67E1cm3Bm4oKPgPURvLlvi5bI9cVviJZ8BmkZVL2d3K3/sp9bbZGri1sa+SS4DNUd2yw3AewNXJt4ZuKCj7DdacOy30QWyPXFbg1cknwGbI7tFjuA9kaua4rViQLPsN24x7LfShbI9cWuDVySfAZuts1+d53hnvB1si1XbGpqODDbZLf9qLeSE0N4dcUujVySfDhFsmX++ssU+oL3lRU8KHUbPLl/lrzthsak7CtkUuCDzvNJV/ur7fIqS38N0zw4aCZ5Ms9nSX4cPLx5Ms9HSb48NTHXn1Q7uk0wYfnrn99cbmn4wQfXsqvSr7c03mCD6+FJ1/uiYDgw1vCki/3REHw4W31k7+Qe+Ig+PCeeslfzIqPWidyT/cJPrzvcvL3uQ/e1ARaIPhwzvnkyz1REXw47/3kyz2REXy45O3kyz3REXy47HXy5Z4ICT7U8Tz5ck+UBB/qySdl8svIyz2REnyoax96uSdWgg/1VcmXe2Il+BBi8Xf+9t+SeyIl+BDku58+tX0IcCXBhyD/u0+KT6wEH4J8V/CJluBDEMEnXoIPQQSfeAk+BBF84iX4EETwiZfgQxDBJ16CD0EEn3gJPgQRfOIl+BBE8ImX4EMQwSdegg9BBJ94CT4EEXziJfgQRPCJl+BDEMEnXoIPQQSfeAk+BBF84iX4EETwiZfgQxDBJ16CD0EEn3gJPgQRfOIl+BBE8ImX4EMQwSdegg9BBJ94CT4EEXziJfgQRPCJl+BDEMEnXoIPQQSfeAk+BBF84iX4EETwiZfgQxDBJ16CD0EEn3gJPgQRfOIl+BBE8ImX4EMQwSdegg9BBJ94CT4EEXziJfgQRPCJl+BDEMEnXoIPQQSfeAk+BBF84iX4EETwiZfgQxDBJ16CD0EEn3gJPgT5FcEnWoIPMBCCD5eNsyzfv5llo7aPBq4k+HBZkqbT/Ztpmn/oS0F7BB8uK4KfJrs3BZ94CT5clqSrdL2o3jwGPxd+YiP4cFmSJtM0q97cBX8xLa7507XmExXBh8uK4I/SdF6+WQV/sU7TVZbu/wgiIfhwWRH8h226Xj7sgz9LV+OHhzxLV20fGQQQfLisDP5ylW4f9sHf38LN3cElKoIPl5XBf5hXeV8X/zPah35pTIeoCD5cVgX/YVJOxs+K1hdX9svqz9eHyZoQA8GHy3bBX5R9F3ziJfhw2S74D5t0vcgM6RAtwYfL9sF/mKZZ5qYt0RJ8uOwQ/OLSfr2flln878i0TOIi+HDZIfgP2/S48Cqz8IrYCD5cdgz+crUbxRlVWyusDOgQFcGHqyzzfNn2MUAYwQcYCMEHGAjBBxgIwQcYCMEHGAjBBxgIwQcYCMEHGAjBhzCfPn1q+xDgOoIPYQSfaAk+hBF8oiX4EEbwiZbgQxjBJ1qCD2EEn2gJPoQRfKIl+BBG8ImW4EMYwSdagg9hBJ9oCT6EEXyiJfgQRvCJluBDGMEnWoIPYQSfaAk+hBF8oiX4EEbwiZbgQxjBJ1qCD2EEn2gJPoQRfKIl+BBG8ImW4EMYwSdagg9hBJ9oCT6EEXyiJfgQRvCJluBDGMEnWoIPYQSfaAk+1PbdUhH88v/9StsHA8EEH2r7c59O/nzbBwPBBB9q++LU+7/Q9rFAOMGH2r48Bf8vtn0sEE7wob7vGdEhZoIP9X1hRIeYCT7U96URHWIm+BDge0Z0iJjgQ4AvjOgQMcGHAF8a0SFigg8hvmdEh3gJPoT4wogO8RJ8CPGlER3iJfgQ5HtGdIiW4EOQL4zoEC3BhyBfGtEhWoIPYb5nRIdYCT6E+cKIDrESfAjzpREdYiX4EOh/3/YBwJUEnyhMUmrbtP2vRVcJPlFYtx3RmIza/teiqwSfGIzSdJxTxyxdtf2vRWcJPjHYpOu2DyEWWTpr+xDoLMEnBlk6afsQYlE8F2r7EOgswScGKlbXPE0XbR8DnSX4RCBXsbq26bTtQ6C7BJ8IJG5E1jVNt20fAt0l+ERg6kZkTcs0nbd9DHSX4NN9KlbbOE2XbR8D3SX4dN9cxeqapVnbh0CHCT7d50Zkbas0afsQ6DDBp/tWbkTWtEjTvO1joMMEn85TsdqsSOYswafzxmna9iHEYmJFMucIPp3nRmRta1sjc47g03kqVtfI1sicJfh0nYrVZkUy5wk+XedGZG22RuY8wafr3IiszaainCf4dJ2K1WVrZC4QfDrO1si1WZHMBYJPx7kRWZutkblA8Ok4WyPXZVNRLhF8uk3FarM1MpcIPt1ma+TarEjmEsGn29yIrM3WyFwi+HSbrZHrsqkoFwk+naZitVmRzEWCT6c1uTVyXn6t/NUXrP2QMso/9tjzzvfPGhqJsSKZiwSfTvvQjcg0Xe9v+Cbll7kc/CQ9SV592N7s2uyfC37+8Qc2m4pykeDTaR+qWFnn3VtV8JflFfrrsub5cRrQ+eBPs8K0eNeVt5Grb7189TShoeDbVJTLBJ8u+1jFym7v8pocnyicLWty5vnE4UuNZtce0zvfuqHgW5HMZYJPl33sRmSaTvYVrEq+SE5lXc632WbX7SQ57tVTJ/jHiUPL8TbbbqrPHSeLxXiynRcPB5tsvH/CME6y2Wb/pZebSTKqvnV1EOWFfpIlu+/fUPBtjcxlgk+XfexGZJou17uhmZdj+Plu2Ga1+6gnY/h1gr9bGjCaVl9iXf5plm7X5X9sqq+7LpcGL7Ldu8udPpdJ9d7Z6fsv1rv3Lh4aC75NRblM8Omyj1WsiOhmt9fmy+BP0yxfFJEeP1wR/N0V/qrs+3xVLQQu4r5O5lm6Xq/G41X1RbLq3dPq2xcHscqLPz99/0k6zReb3UqpZoJva2RqEHw67INbI5cRzar8vgh+np0eBp4Hf5XsjV9/sd2HLZJqDH+83+NnWuY6q7K/KLq+3H+H0f6hqhpoWe1GW6bH719c/pdfbFw9xWgm+FYkU4Pg02EfvBF5Ku/b0zJ3k/zfnpaZvf5i1SydbP++w5OBbfn/s11td5OCqrVihyOvbkKku6lG25ffP6++9T74H1w1ZWtkahB8OuyDWyNXbU3Kyfivgr/Z7qZYPgRc4R8eCqoPz9J11f9VWfZsV9tsd1VffsHt/t3ltzisFh4/+f7zZPfOU/A/tvGZTUWpQ/DpruUHb0RWbV2WAyovgr+74fpW8M+N4W/ywnp/Gzk7PRk4LpbdDdRUX/Dpuw8DU6fvv5yU75g+Cf7DB4Nva2TqEHy666NbI+8upsuBk/x58Le7YZlNWPDz/TFVl9LZ0/lDr4P/dEh9tP/UzfH7F3meLquv1VTwZ4bwqUHw6a6P3ojcD5dP0tWL4K+qu6vlZfhD8CydyW6/hu3TQffXwU+ePlbtn6icxvCLrzHa/cEx+PnHlsnaGpk6BJ/u+ujWyPvgL9dp9jz4u9n5y7SqcmDwF7tBnfF+ve1mO3or+Pn+icB4mx9m6SxPs3Sy47SdvJnN02wqSi2CT2ctPnoj8jAhZrObWfN0SGc1WmzXq+rS+1nwp/nRky+TPzz5sM3usFbpOlkudv/xOvjls4fZYjmvvkM5gjR6Og9/nK7zZbJeV48E1SePsg8N6Wwa3FSUHhN8OuvDWyMfPz97EfzRbp3rqBrLf2e3zPTJl3kW/OLCvBwQGq12H7Z5eDP4+4W41XOU5e7t0xj+cve+0bj8Nk3Mw7c1MrUIPp314ddoTQ5jJaNqmmW1jc1uL5vFJpuMFw/L8s+f7KWTJ088OY784emWO8VXK0dzlptJNtntxzNOdvMudx+y/8jNLMt2f158nyzbzh9O3385nlSfWn6b6pMXyYfGdWyNTC2CT2d15UZk0vl9h22NTD2CT1d1pmKrzs949OqG1CP4dFVXKrZMOj8BxtbI1CP4dJUbkbXZGpl6BJ+uciOyrg9uKspwCD4dpWK1bb26IfUIPh3lNVprszUyNQk+HeVGZF22RqYuwaebPro18oB8dFNRhkPw6SYVq83WyNQl+HST12itrSsrkuk+waeb3Iisy9bI1Cb4dNKHt0Yejg9vKspwCD6dpGK1WZFMbYJPJ314a+ThsCKZ2gSfTnIjsq7ObCpKBASfLlKx2rqyqSgxEHy6SMVqsyKZ+gSfLnIjsjYrkqlP8OkiNyLrsqkoAQSfDlKx2myNTADBp4NsjVybFckEEHw6yI3IumyNTAjBp3tsjVybTUUJIfh0j4rVZmtkQgg+3WNr5NqsSCaE4NM9bkTWZWtkggg+nWNr5NpsKkoQwadzVKw2K5IJIvh0jq2Ra7MimSCCT+e4EVmXTUUJI/h0zciNyLpsKkoYwadrVKy2zBA+QQSfrnEjsjYrkgkj+HTNOqU2m4oSQvDpmLzthsbEpqIEEXw6Zpl33P/hse0jODFHhyCCD4GcM8RK8CGQc4ZYCT4Ecs4QK8GHQM4ZYiX4EMg5Q6wEHwI5Z4iV4EMg5wyxEnwI5JwhVoIPgZwzxErwIZBzhlgJPgRyzhArwYdAzhliJfgQyDlDrAQfAjlniJXgQyDnDLESfAjknCFWgg+BnDPESvAhkHOGWAk+BHLOECvBh0DOGWIl+BDIOUOsBB8COWeIleBDIOcMsRJ8COScIVaCD4GcM8RK8CGQc4ZYCT4Ecs4QK8GHQM4ZYiX4EMg5Q6wEHwI5Z4iV4EMg5wyxEnwI5JwhVoIPgZwzxErwIZBzhlgJPgRyzhArwYdAzhliJfgQyDlDrAQfAjlniJXgQyDnDLESfAjknCFWgg+BnDPESvAhkHOGWAk+BHLOECvBh0DOGWIl+BDIOUOsBB8COWeIleBDIOcMsRJ8COScIVaCD4GcM8RK8CGQc4ZYCT4Ecs4QK8GHQM4ZYiX4EMg5Q6wEHwI5Z4iV4EMg5wyxEnwI5JwhVoIPgZwzxErwIZBzhlgJPgRyzhArwYdAzhliJfgQyDlDrAQfAjlniJXgQyDnDLESfAjknCFWgg+BnDPESvAhkHOGWAk+BHLOECvBh0DOGWIl+BDIOUOsBB8COWeIleBDIOcMsRJ8COScIVaCD4GcM8RK8CGQc4ZYCT4Ecs4QK8GHQM4ZYiX4EMg5Q6wEHwI5Z4iV4EMg5wyxEnwI5JwhVoIPgZwzxErwIZBzhlgJPgRyzhArwYdAzhliJfgQyDlDrAQfAjlniJXgQyDnDLESfAjknCFWgg+BnDPESvAhkHOGWAk+BHLOECvBh0DOGWIl+BDIOUOsBB8COWeIleBDIOcMsRJ8COScIVaCD4GcM8RK8CGQc4ZYCT4Ecs4QK8GHQM4ZYiX4EMg5Q6wEHwI5Z4iV4EMg5wyxEnwI5JwhVoIPgZwzxErwIZBzhlj9qF9eCOOcIVb/qF9eCOOcIVb/R7+8EMY5Q6S+9eiXF8I4Z4jUTwg+BHp5zizbPiCo5Rf/7ce/1/YxQGSeBf/7/6ff/D+3fUBQy59+fPwtbR8DROYY/G99+5f/7v/lG4//17YPCOr4vz0+/t+/3vZBQGR2wf+lP/FPP/7df+ex8LvaPiCo4V/9+8Wv6y+2fRQQmSL4v/hz/+Dx333c+3+0fUBwwfKzf+8f/Pu/9e/+vd9s+0AgNo+//O8//v3Hk//gM+i0X/0bf/3/+R/+W49/7fHn2j55IDaPP/74zN9/hG77d//t3/n/evyPvvaNb7V98kBsHn+q7dMXwvzH/8njL/ynX/vGd9o+dyA6j7/8956dTP/OfwYd9jt+8/HxP/+5b/2Hf8r1PQR7/OX/4FnwDenQbb/8nf/i//3v/YPvt33iQIxe3rR1hU+n/X8++9Vv/Jd/3OU9XOPlGL4rfLruj/9XbZ81EKnHh2/96n/05GT6e9+BTvults8ZiFa10vaXfu43D8H//7Z9QADcxmEvnX/2l79RBf//1/YBAXAbp90yl7/6/y+C/w+3fUAA3Maz7ZF/6U/YHhmgr16+AIr5bgA95VXiAAZC8AEGQvABBkLwAQZC8AEGQvABBkLwAQZC8AEGQvABBkLwAQZC8AEGQvABBkLwAQZC8AEGQvABBkLwAQZC8AEGQvABBkLwAQZC8AEGQvABBkLwAQZC8AEGQvABBkLwAQZC8AEGQvABBkLwAQZC8AEGQvABBkLwAQZC8AEGQvABBkLwAQZC8AEGQvABBkLwAQZC8AEGQvABBkLwAQZC8AEGQvABBkLwAQZC8AEGQvABBkLwAQZC8AEGQvABBkLwAQZC8AEGQvABBkLwAQZC8AEGQvABBkLwAQZC8AEGQvABBkLwAQZC8AEGQvABBkLwAQZC8AEGQvABBkLwAQZC8AEGQvABBkLwAQZC8AEGQvABBkLwAQZC8AEGQvABeu8rP3D0WdvHAsANLR+PfqjtYwHgln7y0Psfb/tIALiprx6C/xNtHwkAN7U0ogMwED9pRAdgGPZjOl9v+zgAuLH9mM6PtX0cANxaNabztbaPAoCb++oPG9EBGISlER2AgfjJx8dvtH0MANzBV3/48be1fQwA3MFXjOgADMRvNaIDMAw/Yo4OwDB8xVb4AHHKN0m2Sm9knW2TfNn2jwjAaJPdKvVPZcmo7Z8UYMgWm+npKvxGjs8eVttF2z8vwEAtZlXsZ+Obh3g5nlXRz/K2f2aAAcqroZzZ/F7fbzRbSz7A/S3Lq/tVct+bqePyMj8zsANwR5vians1vv/3HZdPK+78MAMwYMtJe9ktH2qmZuwA3EW+bnNgpRxMWrfw5AJgeMbl5X2bBzAvHnBmbf8tAPRfkqarlodUFlPFB7i5WZpO279p2o2jAOizrpS2K8cB0FdJZ8ZStp05EoA+GhfX1W0fw8FM8QFuZtSpcZSi+GZnAtzEcpWuu9P7h4dpurYCC+AWJmnaqa3LFusuPeEA6I9xy+utXpun6bbtYwDon+U6zdo+hpe2aWpQB6BpXYxrFx+EAGK36OTwydhMHYCmzbo1Q+cgS1dtHwJAvyw6d8d2J3eJD9Csjl7gl5f4nVn7C9AHy45e4FeX+J27lwwQsXGadvW1w1e21AFoUJZO2j6E92zTdduHANAfiw7fGi2Obd72MQD0xjhNP/YFspe3APKXX/H6ofipMR2AxsyuWNCanuS1gn/twSWm4gM0Zp1ugj/nWfBH+Yt7vss8f/nh1x5c3t0bygCxGV0z3hK4l/IHBo06fIMBIDLza2r8LPjjJC//Z7Gcz2bVHy+SaownT5LtZrH78IfRZpJcs7or6+oaAYDoJNesZn0W/KrJxf9MyxGe1WI/hr/MdkM+m+rDx9XbV7R71t05owCRuaqobwU/TWf5trohUAW/SPx8MUrS9aL88PVqPJ+lafg1/lWPRwC84aoxkzeDX47ebMs+V8Gf7CZUbrd5+eHVRKD1FePxV404AfCGK4M/S/aOwa/mT1aT+qvgJ09ut+4GdoqPCZ9Unws+QEOuWsv6ZFrmMfjb8h35MfjLdZpOt/n+w6uJQNkVM/7za8aBAHhD4AzLwydt8r3TTdvyHafgP+Sz6ibu+OE4LfOa4C+vOj4AXrsy+G/M0inffhL8Itbz2bq6QP9A8K87PgBeu2HwH6plXcmT4G/vdHwAvHaj4C+2k2rsvZqscwx++P1hQzoATbnypu3FK/wszfLDi6t8IPhu2gI0pbF5+C+CX87SKc2qD19e+61MywRoylXBT5Ine1ju99I5baOz20tnMZ5N9/My9x++/5ggFl4BNKXjm9XYWgGgKR0vascfjwAi0vExE9sjAzTlqhdAuR8vgALQmGte4vBuvMQhQHOueRHzu/Ei5gDNGXd5EH96xY7KALxt0eFh8sVV64ABeFvW3ZmP23Td9iEA9Mi4uzdGV0Z0ABq0TLs61z3v9pRRgOjM0nU3d6TMur0KGCA6i45e4ucdvp0MEKeOXuJnJuEDNKy4xN+2fQyvjV3gAzRu28G7o8t1l5cAA0Sqi3Ht4oMQQPzGnbtvO+/kMBNA/CbPXqa2fYt1Ou3ijWSA6C1X3ZqpM03XBnQAbmKUdumSemaGDsDNjNPurGstem8THYCbSTpT2W1njgSgn2YdGdXpynEA9Fc3StuNowDotyRNVy1PjllMjecA3ME4bXkF1nyt9wB3kRfBzVp7AazlLE3X5mMC3MVyUl7ktzOGvikebabWWwHcS5ndVQuX2eOsvYcagGEqB1bS1Z3TO16lbQ4mAQxUXl5sp7P5vb7faLYuc9+p7dsABmJRXuWn69n45tfcy/GsvLiXe4C2LDbTtIp+tk3yQtMjPOXX3CRZFft0tTWYA9Ci0aYa2rm1LDEzB6B9p6vwG6iePZiXA9AtecN0HgAAAAAAAAAAAAAAAAAAAAAAAAAAAAAAAAAAAAAAAAAAAAAAAAAAAAAAAAAAAAAAAAAAAAAAAAAAAAAAAAAAAAAAAAAAAAAAAAAAAAAAAAAAAAAAAAAAAAAAAAAAAAAAAAAAAAAAAAAAAAAAAAAAAAAAAAAAAAAAAAAAAAAAAAAAAAAAAAAAAAAAAAAAAAAAAKCj/mtw5yI2GsTbYgAAACV0RVh0ZGF0ZTpjcmVhdGUAMjAyNS0wMi0yMVQwNDozNjo0OSswMDowMAxioWwAAAAldEVYdGRhdGU6bW9kaWZ5ADIwMjUtMDItMjFUMDQ6MzY6NDkrMDA6MDB9PxnQAAAAKHRFWHRkYXRlOnRpbWVzdGFtcAAyMDI1LTAyLTIxVDA0OjM2OjQ5KzAwOjAwKio4DwAAAABJRU5ErkJggg==;" vertex="1" parent="1">
                    <mxGeometry x="20" y="538.53" width="890" height="1209.11" as="geometry"/>
                </mxCell>
            </root>
        </mxGraphModel>
    </diagram>
</mxfile>